<?xml version="1.0" encoding="UTF-8"?>
<svg xmlns="http://www.w3.org/2000/svg" xmlns:xlink="http://www.w3.org/1999/xlink" xmlns:svgjs="http://svgjs.dev/svgjs" version="1.1" width="1000" height="222" viewBox="0 0 1000 222">
  <g transform="matrix(1,0,0,1,-0.6060606060606233,0.13118404635616798)">
    <svg xmlns="http://www.w3.org/2000/svg" xmlns:xlink="http://www.w3.org/1999/xlink" viewBox="0 0 396 88" data-background-color="#ffcc33" preserveAspectRatio="xMidYMid meet" height="222" width="1000">
      <g id="tight-bounds" transform="matrix(1,0,0,1,0.2400000000000091,-0.05200088324028229)">
        <svg viewBox="0 0 395.52 88.10400176648055" height="88.10400176648055" width="395.52">
          <g>
            <svg viewBox="0 0 597.5205358140637 133.100602606368" height="88.10400176648055" width="395.52">
              <g transform="matrix(1,0,0,1,200.02293581406377,9.967642851217292)">
                <svg viewBox="0 0 397.4975999999999 113.16531690393342" height="113.16531690393342" width="397.4975999999999">
                  <g>
                    <svg viewBox="0 0 397.4975999999999 113.16531690393342" height="113.16531690393342" width="397.4975999999999">
                      <g>
                        <rect width="397.4975999999999" height="6.029028917772377" x="0" y="73.95699332459169" fill="#001f3f" opacity="1" stroke-width="0" stroke="transparent" fill-opacity="1" class="rect-in-0" data-fill-palette-color="primary" rx="1%" id="in-0" data-palette-color="#001f3f"></rect>
                      </g>
                      <g transform="matrix(1,0,0,1,0.9887999999999693,0)">
                        <svg viewBox="0 0 395.52 66.85473412826298" height="66.85473412826298" width="395.52">
                          <g transform="matrix(1,0,0,1,0,0)">
                            <svg width="395.52" viewBox="1 -47 310.27 52.45" height="66.85473412826298" data-palette-color="#001f3f">
                              <path d="M43.4-32Q43.4-27.75 40.4-24.68 37.4-21.6 31.65-20.25L31.65-20.25Q34.75-19.4 36.35-17.48 37.95-15.55 37.95-13.05L37.95-13.05Q37.95-9.1 35.48-6.2 33-3.3 28.25-1.73 23.5-0.15 16.8-0.15L16.8-0.15Q14.3-0.15 12.8-0.3L12.8-0.3Q12.75 1.1 11.6 1.8 10.45 2.5 8.65 2.5L8.65 2.5Q6.85 2.5 6.18 1.7 5.5 0.9 5.6-0.65L5.6-0.65Q6.05-7.65 7.35-15.33 8.65-23 10.65-30.15L10.65-30.15Q11-31.4 12.05-31.9 13.1-32.4 14.8-32.4L14.8-32.4Q17.85-32.4 17.85-30.7L17.85-30.7Q17.85-30 17.55-29.1L17.55-29.1Q16.25-25.2 14.95-18.53 13.65-11.85 13.1-5.8L13.1-5.8Q15.5-5.6 17-5.6L17-5.6Q24-5.6 27.28-7.63 30.55-9.65 30.55-12.8L30.55-12.8Q30.55-15 28.68-16.5 26.8-18 22.4-18.15L22.4-18.15Q21.4-18.2 21-18.65 20.6-19.1 20.6-20.1L20.6-20.1Q20.6-21.55 21.2-22.45 21.8-23.35 23.4-23.4L23.4-23.4Q26.95-23.5 29.83-24.45 32.7-25.4 34.35-27.13 36-28.85 36-31.15L36-31.15Q36-34.05 33.15-35.73 30.3-37.4 24.4-37.4L24.4-37.4Q19.05-37.4 14.05-36.02 9.05-34.65 5.55-32.55L5.55-32.55Q3.95-31.6 2.85-31.6L2.85-31.6Q1.95-31.6 1.48-32.23 1-32.85 1-33.8L1-33.8Q1-35.05 1.53-35.95 2.05-36.85 4.05-38L4.05-38Q8.25-40.4 13.9-41.75 19.55-43.1 25.45-43.1L25.45-43.1Q34.5-43.1 38.95-40.05 43.4-37 43.4-32L43.4-32ZM46.3 0.25Q44.4 0.25 43.62-1.75 42.85-3.75 42.85-8.15L42.85-8.15Q42.85-14.65 44.7-20.5L44.7-20.5Q45.15-21.95 46.17-22.63 47.2-23.3 49.05-23.3L49.05-23.3Q50.05-23.3 50.45-23.05 50.85-22.8 50.85-22.1L50.85-22.1Q50.85-21.3 50.1-18.5L50.1-18.5Q49.6-16.5 49.3-15 49-13.5 48.8-11.3L48.8-11.3Q50.45-15.6 52.5-18.3 54.55-21 56.52-22.15 58.5-23.3 60.15-23.3L60.15-23.3Q63.4-23.3 63.4-20.05L63.4-20.05Q63.4-19.4 62.95-16.9L62.95-16.9Q62.55-14.9 62.55-14.4L62.55-14.4Q62.55-12.65 63.8-12.65L63.8-12.65Q65.2-12.65 67.4-14.85L67.4-14.85Q68.05-15.5 68.75-15.5L68.75-15.5Q69.4-15.5 69.77-14.93 70.15-14.35 70.15-13.4L70.15-13.4Q70.15-11.55 69.15-10.5L69.15-10.5Q67.75-9.05 65.87-8.03 64-7 61.9-7L61.9-7Q59.25-7 57.87-8.35 56.5-9.7 56.5-12L56.5-12Q56.5-12.75 56.65-13.5L56.65-13.5Q56.75-14.5 56.75-14.85L56.75-14.85Q56.75-15.65 56.2-15.65L56.2-15.65Q55.45-15.65 54.22-13.98 53-12.3 51.8-9.55 50.6-6.8 49.85-3.75L49.85-3.75Q49.3-1.4 48.57-0.58 47.85 0.25 46.3 0.25L46.3 0.25ZM72.05-26.6Q69.95-26.6 68.9-27.58 67.84-28.55 67.84-30.3L67.84-30.3Q67.84-32.05 69.22-33.23 70.59-34.4 72.65-34.4L72.65-34.4Q74.5-34.4 75.65-33.5 76.8-32.6 76.8-30.95L76.8-30.95Q76.8-28.95 75.5-27.78 74.2-26.6 72.05-26.6L72.05-26.6ZM71.65 0.25Q68.4 0.25 66.92-2.05 65.45-4.35 65.45-8.15L65.45-8.15Q65.45-10.4 66.02-13.93 66.59-17.45 67.5-20.5L67.5-20.5Q67.95-22.1 68.7-22.7 69.45-23.3 71.09-23.3L71.09-23.3Q73.65-23.3 73.65-21.6L73.65-21.6Q73.65-20.35 72.7-15.8L72.7-15.8Q71.5-10.3 71.5-8.35L71.5-8.35Q71.5-6.85 71.9-6.05 72.3-5.25 73.25-5.25L73.25-5.25Q74.15-5.25 75.5-6.5 76.84-7.75 79.09-10.45L79.09-10.45Q79.7-11.15 80.45-11.15L80.45-11.15Q81.09-11.15 81.47-10.55 81.84-9.95 81.84-8.9L81.84-8.9Q81.84-6.9 80.9-5.8L80.9-5.8Q75.95 0.25 71.65 0.25L71.65 0.25ZM87.34 0.25Q82.44 0.25 79.72-2.53 76.99-5.3 76.99-9.85L76.99-9.85Q76.99-13.9 78.59-16.95 80.19-20 82.74-21.65 85.29-23.3 88.09-23.3L88.09-23.3Q90.84-23.3 92.37-21.68 93.89-20.05 93.89-17.5L93.89-17.5Q93.89-15.4 92.97-13.95 92.04-12.5 90.54-12.5L90.54-12.5Q89.59-12.5 89.02-12.95 88.44-13.4 88.44-14.2L88.44-14.2Q88.44-14.55 88.54-15 88.64-15.45 88.69-15.65L88.69-15.65Q88.94-16.4 88.94-17.05L88.94-17.05Q88.94-17.7 88.62-18.05 88.29-18.4 87.69-18.4L87.69-18.4Q86.54-18.4 85.54-17.38 84.54-16.35 83.94-14.6 83.34-12.85 83.34-10.75L83.34-10.75Q83.34-4.95 88.39-4.95L88.39-4.95Q90.44-4.95 92.82-6.33 95.19-7.7 97.49-10.45L97.49-10.45Q98.09-11.15 98.84-11.15L98.84-11.15Q99.49-11.15 99.87-10.55 100.24-9.95 100.24-8.9L100.24-8.9Q100.24-7 99.29-5.8L99.29-5.8Q96.94-2.9 93.67-1.33 90.39 0.25 87.34 0.25L87.34 0.25ZM125.09-11.15Q125.74-11.15 126.12-10.55 126.49-9.95 126.49-8.9L126.49-8.9Q126.49-6.9 125.54-5.8L125.54-5.8Q123.29-3.05 120.99-1.4 118.69 0.25 115.54 0.25L115.54 0.25Q111.69 0.25 109.34-1.95 106.99-4.15 106.99-7.8L106.99-7.8Q106.99-9.75 108.99-10.6L108.99-10.6Q111.19-11.55 112.14-12.63 113.09-13.7 113.09-15.25L113.09-15.25Q113.09-16.15 112.72-16.6 112.34-17.05 111.79-17.05L111.79-17.05Q110.44-17.05 108.82-15.1 107.19-13.15 105.79-10.08 104.39-7 103.59-3.75L103.59-3.75Q103.04-1.4 102.32-0.58 101.59 0.25 100.04 0.25L100.04 0.25Q98.49 0.25 97.77-0.88 97.04-2 96.79-4.35 96.54-6.7 96.54-11.25L96.54-11.25Q96.54-18.95 98.12-27.3 99.69-35.65 102.77-41.33 105.84-47 110.14-47L110.14-47Q112.44-47 113.87-45.03 115.29-43.05 115.29-39.9L115.29-39.9Q115.29-34.85 112.34-29.43 109.39-24 102.74-16.75L102.74-16.75Q102.59-14.15 102.59-11.4L102.59-11.4Q104.99-17.65 108.09-20.48 111.19-23.3 113.89-23.3L113.89-23.3Q116.39-23.3 117.92-21.6 119.44-19.9 119.44-17.4L119.44-17.4Q119.44-14.65 118.04-12.35 116.64-10.05 113.24-8.25L113.24-8.25Q113.44-6.9 114.47-6.08 115.49-5.25 116.94-5.25L116.94-5.25Q118.49-5.25 119.94-6.45 121.39-7.65 123.74-10.45L123.74-10.45Q124.34-11.15 125.09-11.15L125.09-11.15ZM109.09-42.05Q108.19-42.05 107.09-39.48 105.99-36.9 104.97-32.52 103.94-28.15 103.29-23L103.29-23Q106.39-26.65 108.42-30.95 110.44-35.25 110.44-38.75L110.44-38.75Q110.44-40.35 110.09-41.2 109.74-42.05 109.09-42.05L109.09-42.05ZM161.19-29.8Q161.19-25.55 158.99-22 156.79-18.45 152.59-16.2 148.39-13.95 142.59-13.55L142.59-13.55 140.44-1.5Q139.19 5.45 133.64 5.45L133.64 5.45Q130.59 5.45 128.01 3.65 125.44 1.85 123.89-1.85 122.34-5.55 122.34-10.95L122.34-10.95Q122.34-21.1 125.61-28.18 128.89-35.25 134.41-38.78 139.94-42.3 146.59-42.3L146.59-42.3Q151.29-42.3 154.56-40.65 157.84-39 159.51-36.18 161.19-33.35 161.19-29.8L161.19-29.8ZM143.49-18.7Q153.74-20 153.74-29.35L153.74-29.35Q153.74-32.65 151.56-34.73 149.39-36.8 144.84-36.8L144.84-36.8Q139.69-36.8 135.86-33.55 132.04-30.3 129.96-24.53 127.89-18.75 127.89-11.35L127.89-11.35Q127.89-8.25 128.51-5.85 129.14-3.45 130.11-2.13 131.09-0.8 131.99-0.8L131.99-0.8Q133.24-0.8 133.89-4.25L133.89-4.25 135.54-13.7Q133.59-14 133.84-13.95L133.84-13.95Q132.34-14.2 131.89-14.88 131.44-15.55 131.44-16.6L131.44-16.6Q131.44-17.7 132.06-18.35 132.69-19 133.79-19L133.79-19Q134.29-19 134.54-18.95L134.54-18.95Q135.74-18.75 136.39-18.7L136.39-18.7Q137.04-22.6 138.24-29.15L138.24-29.15Q138.54-30.85 139.61-31.58 140.69-32.3 142.14-32.3L142.14-32.3Q143.79-32.3 144.51-31.68 145.24-31.05 145.24-29.7L145.24-29.7Q145.24-28.9 145.14-28.4L145.14-28.4 143.49-18.7ZM164.59 0.25Q161.49 0.25 159.64-2 157.79-4.25 157.79-7.9L157.79-7.9Q157.79-11.9 159.64-15.48 161.49-19.05 164.56-21.23 167.64-23.4 171.09-23.4L171.09-23.4Q172.19-23.4 172.56-22.98 172.94-22.55 173.19-21.45L173.19-21.45Q174.24-21.65 175.39-21.65L175.39-21.65Q177.84-21.65 177.84-19.9L177.84-19.9Q177.84-18.85 177.09-14.9L177.09-14.9Q175.94-9.15 175.94-6.9L175.94-6.9Q175.94-6.15 176.31-5.7 176.69-5.25 177.29-5.25L177.29-5.25Q178.24-5.25 179.59-6.48 180.94-7.7 183.24-10.45L183.24-10.45Q183.84-11.15 184.59-11.15L184.59-11.15Q185.24-11.15 185.61-10.55 185.99-9.95 185.99-8.9L185.99-8.9Q185.99-6.9 185.04-5.8L185.04-5.8Q182.99-3.25 180.69-1.5 178.39 0.25 176.24 0.25L176.24 0.25Q174.59 0.25 173.21-0.88 171.84-2 171.14-3.95L171.14-3.95Q168.54 0.25 164.59 0.25L164.59 0.25ZM166.39-4.8Q167.49-4.8 168.49-6.1 169.49-7.4 169.94-9.55L169.94-9.55 171.79-18.75Q169.69-18.7 167.91-17.18 166.14-15.65 165.09-13.15 164.04-10.65 164.04-7.85L164.04-7.85Q164.04-6.3 164.66-5.55 165.29-4.8 166.39-4.8L166.39-4.8ZM185.48 0.25Q183.58 0.25 182.81-1.75 182.03-3.75 182.03-8.15L182.03-8.15Q182.03-14.65 183.88-20.5L183.88-20.5Q184.33-21.95 185.36-22.63 186.38-23.3 188.23-23.3L188.23-23.3Q189.23-23.3 189.63-23.05 190.03-22.8 190.03-22.1L190.03-22.1Q190.03-21.3 189.28-18.5L189.28-18.5Q188.78-16.5 188.48-15 188.18-13.5 187.98-11.3L187.98-11.3Q189.63-15.6 191.68-18.3 193.73-21 195.71-22.15 197.68-23.3 199.33-23.3L199.33-23.3Q202.58-23.3 202.58-20.05L202.58-20.05Q202.58-19.4 202.13-16.9L202.13-16.9Q201.73-14.9 201.73-14.4L201.73-14.4Q201.73-12.65 202.98-12.65L202.98-12.65Q204.38-12.65 206.58-14.85L206.58-14.85Q207.23-15.5 207.93-15.5L207.93-15.5Q208.58-15.5 208.96-14.93 209.33-14.35 209.33-13.4L209.33-13.4Q209.33-11.55 208.33-10.5L208.33-10.5Q206.93-9.05 205.06-8.03 203.18-7 201.08-7L201.08-7Q198.43-7 197.06-8.35 195.68-9.7 195.68-12L195.68-12Q195.68-12.75 195.83-13.5L195.83-13.5Q195.93-14.5 195.93-14.85L195.93-14.85Q195.93-15.65 195.38-15.65L195.38-15.65Q194.63-15.65 193.41-13.98 192.18-12.3 190.98-9.55 189.78-6.8 189.03-3.75L189.03-3.75Q188.48-1.4 187.76-0.58 187.03 0.25 185.48 0.25L185.48 0.25ZM210.83 0.25Q207.73 0.25 205.88-2 204.03-4.25 204.03-7.9L204.03-7.9Q204.03-11.9 205.88-15.48 207.73-19.05 210.81-21.23 213.88-23.4 217.33-23.4L217.33-23.4Q218.43-23.4 218.81-22.98 219.18-22.55 219.43-21.45L219.43-21.45Q220.48-21.65 221.63-21.65L221.63-21.65Q224.08-21.65 224.08-19.9L224.08-19.9Q224.08-18.85 223.33-14.9L223.33-14.9Q222.18-9.15 222.18-6.9L222.18-6.9Q222.18-6.15 222.56-5.7 222.93-5.25 223.53-5.25L223.53-5.25Q224.48-5.25 225.83-6.48 227.18-7.7 229.48-10.45L229.48-10.45Q230.08-11.15 230.83-11.15L230.83-11.15Q231.48-11.15 231.86-10.55 232.23-9.95 232.23-8.9L232.23-8.9Q232.23-6.9 231.28-5.8L231.28-5.8Q229.23-3.25 226.93-1.5 224.63 0.25 222.48 0.25L222.48 0.25Q220.83 0.25 219.46-0.88 218.08-2 217.38-3.95L217.38-3.95Q214.78 0.25 210.83 0.25L210.83 0.25ZM212.63-4.8Q213.73-4.8 214.73-6.1 215.73-7.4 216.18-9.55L216.18-9.55 218.03-18.75Q215.93-18.7 214.16-17.18 212.38-15.65 211.33-13.15 210.28-10.65 210.28-7.85L210.28-7.85Q210.28-6.3 210.91-5.55 211.53-4.8 212.63-4.8L212.63-4.8ZM256.58-11.15Q257.23-11.15 257.6-10.55 257.98-9.95 257.98-8.9L257.98-8.9Q257.98-6.9 257.03-5.8L257.03-5.8Q254.98-3.3 252.53-1.53 250.08 0.25 247.68 0.25L247.68 0.25Q243.88 0.25 241.88-4.2L241.88-4.2Q239.78-1.55 238.2-0.65 236.63 0.25 234.53 0.25L234.53 0.25Q231.48 0.25 229.5-2.02 227.53-4.3 227.53-7.95L227.53-7.95Q227.53-11.95 229.23-15.38 230.93-18.8 233.9-20.98 236.88-23.15 240.58-23.55L240.58-23.55Q241.53-33.25 244.2-40.13 246.88-47 251.23-47L251.23-47Q253.38-47 254.8-45.05 256.23-43.1 256.23-39.15L256.23-39.15Q256.23-33.55 253.48-26.05 250.73-18.55 246.13-10.65L246.13-10.65Q246.33-7.75 247-6.5 247.68-5.25 248.73-5.25L248.73-5.25Q250.08-5.25 251.48-6.45 252.88-7.65 255.23-10.45L255.23-10.45Q255.83-11.15 256.58-11.15L256.58-11.15ZM250.68-42.1Q249.73-42.1 248.78-38.73 247.83-35.35 247.15-29.9 246.48-24.45 246.18-18.5L246.18-18.5Q251.78-30.7 251.78-38.1L251.78-38.1Q251.78-40 251.45-41.05 251.13-42.1 250.68-42.1L250.68-42.1ZM236.28-4.8Q237.23-4.8 238.18-5.58 239.13-6.35 240.58-8.45L240.58-8.45Q240.08-11.15 240.08-14.5L240.08-14.5Q240.08-15.7 240.18-18.4L240.18-18.4Q237.43-17.55 235.6-14.73 233.78-11.9 233.78-8.45L233.78-8.45Q233.78-4.8 236.28-4.8L236.28-4.8ZM260.48-26.6Q258.38-26.6 257.33-27.58 256.28-28.55 256.28-30.3L256.28-30.3Q256.28-32.05 257.65-33.23 259.03-34.4 261.08-34.4L261.08-34.4Q262.93-34.4 264.08-33.5 265.23-32.6 265.23-30.95L265.23-30.95Q265.23-28.95 263.93-27.78 262.63-26.6 260.48-26.6L260.48-26.6ZM260.08 0.25Q256.83 0.25 255.35-2.05 253.88-4.35 253.88-8.15L253.88-8.15Q253.88-10.4 254.45-13.93 255.03-17.45 255.93-20.5L255.93-20.5Q256.38-22.1 257.13-22.7 257.88-23.3 259.53-23.3L259.53-23.3Q262.08-23.3 262.08-21.6L262.08-21.6Q262.08-20.35 261.13-15.8L261.13-15.8Q259.93-10.3 259.93-8.35L259.93-8.35Q259.93-6.85 260.33-6.05 260.73-5.25 261.68-5.25L261.68-5.25Q262.58-5.25 263.93-6.5 265.28-7.75 267.53-10.45L267.53-10.45Q268.13-11.15 268.88-11.15L268.88-11.15Q269.53-11.15 269.9-10.55 270.28-9.95 270.28-8.9L270.28-8.9Q270.28-6.9 269.33-5.8L269.33-5.8Q264.38 0.25 260.08 0.25L260.08 0.25ZM275.52 1.35Q272.92 1.35 271.55 0.15 270.17-1.05 270.17-2.55L270.17-2.55Q270.17-3.85 271.12-4.8 272.07-5.75 273.92-5.75L273.92-5.75Q274.57-5.75 275.45-5.63 276.32-5.5 276.77-5.45L276.77-5.45Q276.72-6.75 276.2-7.9 275.67-9.05 274.87-10.13 274.07-11.2 273.37-12L273.37-12Q271.82-9.05 270.3-7.1 268.77-5.15 266.97-3.4L266.97-3.4Q266.07-2.5 265.07-2.5L265.07-2.5Q264.27-2.5 263.77-3.08 263.27-3.65 263.27-4.5L263.27-4.5Q263.27-5.5 263.97-6.35L263.97-6.35 264.62-7.15Q267.37-10.55 268.77-12.75L268.77-12.75Q269.62-14.2 270.77-16.63 271.92-19.05 273.02-21.65L273.02-21.65Q273.97-23.85 276.97-23.85L276.97-23.85Q278.37-23.85 278.92-23.6 279.47-23.35 279.47-22.8L279.47-22.8Q279.47-22.5 279.27-21.85 279.07-21.2 278.72-20.55L278.72-20.55Q277.82-18.75 277.82-17.5L277.82-17.5Q277.82-16.75 278.35-15.85 278.87-14.95 279.97-13.6L279.97-13.6Q281.57-11.5 282.4-10.03 283.22-8.55 283.22-6.8L283.22-6.8Q283.22-6.3 283.12-5.4L283.12-5.4Q285.57-6.35 288.87-10.45L288.87-10.45Q289.47-11.15 290.22-11.15L290.22-11.15Q290.87-11.15 291.25-10.55 291.62-9.95 291.62-8.9L291.62-8.9Q291.62-7 290.67-5.8L290.67-5.8Q288.17-2.7 285.9-1.58 283.62-0.45 280.27-0.35L280.27-0.35Q278.27 1.35 275.52 1.35L275.52 1.35ZM309.87-11.15Q310.52-11.15 310.9-10.55 311.27-9.95 311.27-8.9L311.27-8.9Q311.27-6.9 310.32-5.8L310.32-5.8Q308.47-3.55 305.1-1.65 301.72 0.25 297.87 0.25L297.87 0.25Q292.62 0.25 289.72-2.6 286.82-5.45 286.82-10.4L286.82-10.4Q286.82-13.85 288.27-16.82 289.72-19.8 292.3-21.55 294.87-23.3 298.12-23.3L298.12-23.3Q301.02-23.3 302.77-21.58 304.52-19.85 304.52-16.9L304.52-16.9Q304.52-13.45 302.05-10.98 299.57-8.5 293.67-7.05L293.67-7.05Q294.92-4.75 298.42-4.75L298.42-4.75Q300.67-4.75 303.55-6.33 306.42-7.9 308.52-10.45L308.52-10.45Q309.12-11.15 309.87-11.15L309.87-11.15ZM297.27-18.4Q295.42-18.4 294.15-16.25 292.87-14.1 292.87-11.05L292.87-11.05 292.87-10.95Q295.82-11.65 297.52-13.05 299.22-14.45 299.22-16.3L299.22-16.3Q299.22-17.25 298.7-17.82 298.17-18.4 297.27-18.4L297.27-18.4Z" opacity="1" transform="matrix(1,0,0,1,0,0)" fill="#001f3f" class="undefined-text-0" data-fill-palette-color="primary" id="text-0"></path>
                            </svg>
                          </g>
                        </svg>
                      </g>
                      <g transform="matrix(1,0,0,1,0,87.08828143869279)">
                        <svg viewBox="0 0 232.20979199999996 26.077035465240638" height="26.077035465240638" width="232.20979199999996">
                          <g transform="matrix(1,0,0,1,0,0)">
                            <svg width="232.20979199999996" viewBox="2.75 -47 420.71 47.25" height="26.077035465240638" data-palette-color="#f012be">
                              <path d="M49.05-11.15Q49.7-11.15 50.08-10.55 50.45-9.95 50.45-8.9L50.45-8.9Q50.45-6.95 49.5-5.8L49.5-5.8Q47.1-2.9 44.65-1.33 42.2 0.25 38.85 0.25L38.85 0.25Q35.6 0.25 33.33-1.5 31.05-3.25 29-7.5L29-7.5Q27.35-10.9 26.4-12.53 25.45-14.15 24.53-14.85 23.6-15.55 22.25-15.7L22.25-15.7Q22.05-14.65 21.1-9.1L21.1-9.1Q20.7-6.6 20.6-6.05L20.6-6.05Q20.1-3 18.6-1.38 17.1 0.25 14.05 0.25L14.05 0.25Q10.7 0.25 8.13-1.73 5.55-3.7 4.15-7.23 2.75-10.75 2.75-15.25L2.75-15.25Q2.75-23.65 5.68-29.75 8.6-35.85 13.88-39.08 19.15-42.3 26.05-42.3L26.05-42.3Q30.85-42.3 34.1-40.85 37.35-39.4 38.93-36.85 40.5-34.3 40.5-31.1L40.5-31.1Q40.5-28.3 39.18-25.63 37.85-22.95 35.2-20.9 32.55-18.85 28.75-17.85L28.75-17.85Q31.15-17.2 32.45-15.75 33.75-14.3 35.05-11.5L35.05-11.5Q36.45-8.5 37.83-7.1 39.2-5.7 41-5.7L41-5.7Q42.6-5.7 44.05-6.78 45.5-7.85 47.7-10.45L47.7-10.45Q48.3-11.15 49.05-11.15L49.05-11.15ZM14-8.25L15.35-15.75Q13.65-15.75 13.03-16.55 12.4-17.35 12.4-18.35L12.4-18.35Q12.4-19.55 13.18-20.25 13.95-20.95 14.95-20.95L14.95-20.95 16.2-20.95Q17-25.85 17.7-29.4L17.7-29.4Q18.35-32.65 21.9-32.65L21.9-32.65Q24.75-32.65 24.75-30.1L24.75-30.1Q24.75-29.55 24.7-29.25L24.7-29.25 23.2-20.95Q25.9-21.1 28.13-22.25 30.35-23.4 31.68-25.45 33-27.5 33-30.1L33-30.1Q33-33.25 30.85-35.05 28.7-36.85 24.55-36.85L24.55-36.85Q19.65-36.85 15.98-34.43 12.3-32 10.25-27.23 8.2-22.45 8.2-15.6L8.2-15.6Q8.2-12.4 8.85-10.1 9.5-7.8 10.45-6.65 11.4-5.5 12.25-5.5L12.25-5.5Q12.9-5.5 13.33-6.15 13.75-6.8 14-8.25L14-8.25ZM67.7-11.15Q68.35-11.15 68.72-10.55 69.1-9.95 69.1-8.9L69.1-8.9Q69.1-6.9 68.15-5.8L68.15-5.8Q66.3-3.55 62.92-1.65 59.55 0.25 55.7 0.25L55.7 0.25Q50.45 0.25 47.55-2.6 44.65-5.45 44.65-10.4L44.65-10.4Q44.65-13.85 46.1-16.82 47.55-19.8 50.12-21.55 52.7-23.3 55.95-23.3L55.95-23.3Q58.85-23.3 60.6-21.58 62.35-19.85 62.35-16.9L62.35-16.9Q62.35-13.45 59.87-10.98 57.4-8.5 51.5-7.05L51.5-7.05Q52.75-4.75 56.25-4.75L56.25-4.75Q58.5-4.75 61.37-6.33 64.25-7.9 66.35-10.45L66.35-10.45Q66.95-11.15 67.7-11.15L67.7-11.15ZM55.1-18.4Q53.25-18.4 51.97-16.25 50.7-14.1 50.7-11.05L50.7-11.05 50.7-10.95Q53.65-11.65 55.35-13.05 57.05-14.45 57.05-16.3L57.05-16.3Q57.05-17.25 56.52-17.82 56-18.4 55.1-18.4L55.1-18.4ZM91.65-15.35Q92.3-15.35 92.65-14.7 93-14.05 93-13.05L93-13.05Q93-11.8 92.65-11.13 92.3-10.45 91.55-10.2L91.55-10.2Q88.55-9.15 84.95-9L84.95-9Q83.95-4.85 81.17-2.3 78.4 0.25 75.05 0.25L75.05 0.25Q70 0.25 67.7-3.6 65.4-7.45 65.4-14.75L65.4-14.75Q65.4-21.2 67-28.78 68.6-36.35 71.67-41.68 74.75-47 79-47L79-47Q81.3-47 82.7-45.03 84.1-43.05 84.1-39.9L84.1-39.9Q84.1-35.8 82.55-31.75 81-27.7 77.4-23.25L77.4-23.25Q80.75-23 82.85-20.48 84.95-17.95 85.35-14.25L85.35-14.25Q87.7-14.4 90.95-15.25L90.95-15.25Q91.25-15.35 91.65-15.35L91.65-15.35ZM77.85-42.05Q76.85-42.05 75.67-39.08 74.5-36.1 73.5-31 72.5-25.9 72-19.85L72-19.85Q75.3-25.9 77.27-30.53 79.25-35.15 79.25-38.75L79.25-38.75Q79.25-40.35 78.87-41.2 78.5-42.05 77.85-42.05L77.85-42.05ZM75.25-5.05Q76.8-5.05 78-6.35 79.2-7.65 79.6-10.1L79.6-10.1Q78.05-11.15 77.22-12.85 76.4-14.55 76.4-16.45L76.4-16.45Q76.4-17.15 76.6-18.35L76.6-18.35 76.45-18.35Q74.4-18.35 73.02-16.32 71.65-14.3 71.65-10.9L71.65-10.9Q71.65-8.05 72.72-6.55 73.8-5.05 75.25-5.05L75.25-5.05ZM93.79 0.25Q91.54 0.25 90.12-1.83 88.69-3.9 88.69-7L88.69-7Q88.69-10.75 89.19-13.88 89.69-17 90.84-20.5L90.84-20.5Q91.34-22 92.24-22.65 93.14-23.3 95.09-23.3L95.09-23.3Q96.19-23.3 96.62-22.95 97.04-22.6 97.04-21.9L97.04-21.9Q97.04-21.5 96.49-19.2L96.49-19.2Q95.99-17.35 95.69-15.85L95.69-15.85Q94.69-10.6 94.69-8.85L94.69-8.85Q94.69-7.8 94.94-7.38 95.19-6.95 95.74-6.95L95.74-6.95Q96.49-6.95 97.62-8.45 98.74-9.95 100.02-13 101.29-16.05 102.49-20.5L102.49-20.5Q102.89-22 103.72-22.65 104.54-23.3 106.19-23.3L106.19-23.3Q107.34-23.3 107.79-23.03 108.24-22.75 108.24-22L108.24-22Q108.24-20.75 106.99-15.15L106.99-15.15Q105.59-8.75 105.59-7.25L105.59-7.25Q105.59-6.3 105.99-5.78 106.39-5.25 107.04-5.25L107.04-5.25Q108.04-5.25 109.42-6.48 110.79-7.7 113.09-10.45L113.09-10.45Q113.69-11.15 114.44-11.15L114.44-11.15Q115.09-11.15 115.47-10.55 115.84-9.95 115.84-8.9L115.84-8.9Q115.84-6.9 114.89-5.8L114.89-5.8Q112.74-3.15 110.27-1.45 107.79 0.25 104.64 0.25L104.64 0.25Q102.24 0.25 101.12-1.6 99.99-3.45 99.99-6.8L99.99-6.8Q99.14-3.4 97.44-1.58 95.74 0.25 93.79 0.25L93.79 0.25ZM118.34-26.6Q116.24-26.6 115.19-27.58 114.14-28.55 114.14-30.3L114.14-30.3Q114.14-32.05 115.52-33.23 116.89-34.4 118.94-34.4L118.94-34.4Q120.79-34.4 121.94-33.5 123.09-32.6 123.09-30.95L123.09-30.95Q123.09-28.95 121.79-27.78 120.49-26.6 118.34-26.6L118.34-26.6ZM117.94 0.25Q114.69 0.25 113.22-2.05 111.74-4.35 111.74-8.15L111.74-8.15Q111.74-10.4 112.32-13.93 112.89-17.45 113.79-20.5L113.79-20.5Q114.24-22.1 114.99-22.7 115.74-23.3 117.39-23.3L117.39-23.3Q119.94-23.3 119.94-21.6L119.94-21.6Q119.94-20.35 118.99-15.8L118.99-15.8Q117.79-10.3 117.79-8.35L117.79-8.35Q117.79-6.85 118.19-6.05 118.59-5.25 119.54-5.25L119.54-5.25Q120.44-5.25 121.79-6.5 123.14-7.75 125.39-10.45L125.39-10.45Q125.99-11.15 126.74-11.15L126.74-11.15Q127.39-11.15 127.77-10.55 128.14-9.95 128.14-8.9L128.14-8.9Q128.14-6.9 127.19-5.8L127.19-5.8Q122.24 0.25 117.94 0.25L117.94 0.25ZM143.04-11.15Q143.69-11.15 144.06-10.55 144.44-9.95 144.44-8.9L144.44-8.9Q144.44-6.9 143.49-5.8L143.49-5.8Q141.34-3.15 138.81-1.45 136.29 0.25 133.09 0.25L133.09 0.25Q128.69 0.25 126.56-3.75 124.44-7.75 124.44-14.1L124.44-14.1Q124.44-20.2 126.01-28 127.59-35.8 130.66-41.4 133.74-47 137.99-47L137.99-47Q140.39-47 141.76-44.78 143.14-42.55 143.14-38.4L143.14-38.4Q143.14-32.45 139.84-24.6 136.54-16.75 130.89-9.05L130.89-9.05Q131.24-7 132.04-6.13 132.84-5.25 134.14-5.25L134.14-5.25Q136.19-5.25 137.74-6.43 139.29-7.6 141.69-10.45L141.69-10.45Q142.29-11.15 143.04-11.15L143.04-11.15ZM136.89-42.05Q135.74-42.05 134.29-37.9 132.84-33.75 131.74-27.6 130.64-21.45 130.54-15.8L130.54-15.8Q134.09-21.65 136.19-27.53 138.29-33.4 138.29-38.25L138.29-38.25Q138.29-42.05 136.89-42.05L136.89-42.05ZM168.29-11.15Q168.94-11.15 169.31-10.55 169.69-9.95 169.69-8.9L169.69-8.9Q169.69-6.9 168.74-5.8L168.74-5.8Q166.69-3.3 164.24-1.53 161.79 0.25 159.39 0.25L159.39 0.25Q155.59 0.25 153.59-4.2L153.59-4.2Q151.49-1.55 149.91-0.65 148.34 0.25 146.24 0.25L146.24 0.25Q143.19 0.25 141.21-2.02 139.24-4.3 139.24-7.95L139.24-7.95Q139.24-11.95 140.94-15.38 142.64-18.8 145.61-20.98 148.59-23.15 152.29-23.55L152.29-23.55Q153.24-33.25 155.91-40.13 158.59-47 162.94-47L162.94-47Q165.09-47 166.51-45.05 167.94-43.1 167.94-39.15L167.94-39.15Q167.94-33.55 165.19-26.05 162.44-18.55 157.84-10.65L157.84-10.65Q158.04-7.75 158.71-6.5 159.39-5.25 160.44-5.25L160.44-5.25Q161.79-5.25 163.19-6.45 164.59-7.65 166.94-10.45L166.94-10.45Q167.54-11.15 168.29-11.15L168.29-11.15ZM162.39-42.1Q161.44-42.1 160.49-38.73 159.54-35.35 158.86-29.9 158.19-24.45 157.89-18.5L157.89-18.5Q163.49-30.7 163.49-38.1L163.49-38.1Q163.49-40 163.16-41.05 162.84-42.1 162.39-42.1L162.39-42.1ZM147.99-4.8Q148.94-4.8 149.89-5.58 150.84-6.35 152.29-8.45L152.29-8.45Q151.79-11.15 151.79-14.5L151.79-14.5Q151.79-15.7 151.89-18.4L151.89-18.4Q149.14-17.55 147.31-14.73 145.49-11.9 145.49-8.45L145.49-8.45Q145.49-4.8 147.99-4.8L147.99-4.8ZM218.53-41.5Q220.08-41.2 220.86-40.45 221.63-39.7 221.63-38.7L221.63-38.7Q221.63-37.05 220.71-36.3 219.78-35.55 217.78-35.7L217.78-35.7Q213.28-36.05 210.76-36.18 208.23-36.3 204.13-36.35L204.13-36.35Q202.28-27.15 200.73-17.85L200.73-17.85Q200.18-14.45 199.58-9.98 198.98-5.5 198.78-2.75L198.78-2.75Q198.68-1.3 197.58-0.53 196.48 0.25 194.93 0.25L194.93 0.25Q193.28 0.25 192.38-0.55 191.48-1.35 191.48-2.65L191.48-2.65Q191.48-3.85 191.86-6.63 192.23-9.4 192.73-12.45L192.73-12.45Q193.28-15.5 193.58-17.75L193.58-17.75Q194.13-21.55 194.83-25.3 195.53-29.05 196.23-32.4L196.23-32.4Q196.38-33.15 196.58-34.13 196.78-35.1 197.03-36.3L197.03-36.3Q192.13-36.15 189.33-35.5 186.53-34.85 185.36-33.68 184.18-32.5 184.18-30.65L184.18-30.65Q184.18-28.95 185.18-27.4L185.18-27.4Q185.38-27.05 185.38-26.65L185.38-26.65Q185.38-25.7 184.26-24.88 183.13-24.05 181.93-24.05L181.93-24.05Q181.08-24.05 180.53-24.55L180.53-24.55Q179.53-25.4 178.88-26.98 178.23-28.55 178.23-30.55L178.23-30.55Q178.23-34.8 181.01-37.38 183.78-39.95 189.46-41.15 195.13-42.35 204.03-42.35L204.03-42.35Q209.53-42.35 212.81-42.15 216.08-41.95 218.53-41.5L218.53-41.5ZM241.48-11.15Q242.13-11.15 242.5-10.55 242.88-9.95 242.88-8.9L242.88-8.9Q242.88-6.9 241.93-5.8L241.93-5.8Q239.63-3.15 237.2-1.45 234.78 0.25 231.68 0.25L231.68 0.25Q229.13 0.25 227.83-1.23 226.53-2.7 226.53-5.5L226.53-5.5Q226.53-6.9 227.23-10.5L227.23-10.5Q227.88-13.65 227.88-14.85L227.88-14.85Q227.88-15.65 227.33-15.65L227.33-15.65Q226.68-15.65 225.48-13.98 224.28-12.3 223.08-9.55 221.88-6.8 221.13-3.75L221.13-3.75Q220.18 0.25 216.43 0.25L216.43 0.25Q214.93 0.25 214.45-0.83 213.98-1.9 213.98-4.7L213.98-4.7Q213.98-6.3 214.03-7.25L214.03-7.25 214.08-11.25Q214.08-18.95 215.65-27.3 217.23-35.65 220.3-41.33 223.38-47 227.68-47L227.68-47Q229.98-47 231.4-45.03 232.83-43.05 232.83-39.9L232.83-39.9Q232.83-34.85 229.88-29.43 226.93-24 220.28-16.75L220.28-16.75Q220.13-14.15 220.13-11.4L220.13-11.4Q221.78-15.65 223.8-18.32 225.83-21 227.8-22.15 229.78-23.3 231.43-23.3L231.43-23.3Q234.68-23.3 234.68-20.05L234.68-20.05Q234.68-18.1 233.58-13L233.58-13Q232.63-8.65 232.63-7.25L232.63-7.25Q232.63-5.25 234.08-5.25L234.08-5.25Q235.08-5.25 236.45-6.48 237.83-7.7 240.13-10.45L240.13-10.45Q240.73-11.15 241.48-11.15L241.48-11.15ZM226.63-42.05Q225.73-42.05 224.63-39.48 223.53-36.9 222.5-32.52 221.48-28.15 220.83-23L220.83-23Q223.93-26.65 225.95-30.95 227.98-35.25 227.98-38.75L227.98-38.75Q227.98-40.35 227.63-41.2 227.28-42.05 226.63-42.05L226.63-42.05ZM261.13-11.15Q261.78-11.15 262.15-10.55 262.53-9.95 262.53-8.9L262.53-8.9Q262.53-6.9 261.57-5.8L261.57-5.8Q259.73-3.55 256.35-1.65 252.98 0.25 249.13 0.25L249.13 0.25Q243.88 0.25 240.98-2.6 238.08-5.45 238.08-10.4L238.08-10.4Q238.08-13.85 239.53-16.82 240.98-19.8 243.55-21.55 246.13-23.3 249.38-23.3L249.38-23.3Q252.28-23.3 254.03-21.58 255.78-19.85 255.78-16.9L255.78-16.9Q255.78-13.45 253.3-10.98 250.83-8.5 244.93-7.05L244.93-7.05Q246.18-4.75 249.68-4.75L249.68-4.75Q251.93-4.75 254.8-6.33 257.68-7.9 259.78-10.45L259.78-10.45Q260.38-11.15 261.13-11.15L261.13-11.15ZM248.53-18.4Q246.68-18.4 245.4-16.25 244.13-14.1 244.13-11.05L244.13-11.05 244.13-10.95Q247.08-11.65 248.78-13.05 250.48-14.45 250.48-16.3L250.48-16.3Q250.48-17.25 249.95-17.82 249.43-18.4 248.53-18.4L248.53-18.4ZM335.22-21.6Q336.37-21.6 336.89-21.1 337.42-20.6 337.42-19.8L337.42-19.8Q337.42-18.5 336.64-17.5 335.87-16.5 334.22-16.45L334.22-16.45Q330.27-16.4 327.12-17.05L327.12-17.05Q323.62-9.6 318.69-4.67 313.77 0.25 308.97 0.25L308.97 0.25Q304.57 0.25 302.37-4.42 300.17-9.1 299.87-16.95L299.87-16.95Q296.87-8.25 293.09-4 289.32 0.25 285.07 0.25L285.07 0.25Q280.27 0.25 277.82-5.73 275.37-11.7 275.37-21.8L275.37-21.8Q275.37-29.15 276.67-37.95L276.67-37.95Q277.02-40.45 277.94-41.43 278.87-42.4 280.87-42.4L280.87-42.4Q282.37-42.4 283.19-41.75 284.02-41.1 284.02-39.35L284.02-39.35Q284.02-39 283.92-38L283.92-38Q282.42-27.75 282.42-20.55L282.42-20.55Q282.42-13.85 283.57-10.2 284.72-6.55 286.67-6.55L286.67-6.55Q288.42-6.55 290.89-10.23 293.37-13.9 295.82-21.13 298.27-28.35 299.97-38.35L299.97-38.35Q300.37-40.65 301.44-41.53 302.52-42.4 304.37-42.4L304.37-42.4Q305.92-42.4 306.64-41.73 307.37-41.05 307.37-39.7L307.37-39.7Q307.37-38.9 307.27-38.45L307.27-38.45Q305.87-30.3 305.87-22.15L305.87-22.15Q305.87-16.6 306.25-13.3 306.62-10 307.69-8.28 308.77-6.55 310.82-6.55L310.82-6.55Q313.22-6.55 316.17-10.18 319.12-13.8 321.57-19.2L321.57-19.2Q318.52-21.1 316.97-24.13 315.42-27.15 315.42-31.1L315.42-31.1Q315.42-35.05 316.64-37.77 317.87-40.5 320-41.85 322.12-43.2 324.72-43.2L324.72-43.2Q327.92-43.2 329.8-40.9 331.67-38.6 331.67-34.6L331.67-34.6Q331.67-28.95 329.22-22.05L329.22-22.05Q331.77-21.6 335.22-21.6L335.22-21.6ZM320.47-31.45Q320.47-26.55 323.62-24.2L323.62-24.2Q325.57-29.8 325.57-33.45L325.57-33.45Q325.57-35.55 325.02-36.52 324.47-37.5 323.52-37.5L323.52-37.5Q322.17-37.5 321.32-35.93 320.47-34.35 320.47-31.45L320.47-31.45ZM358.07-15.35Q358.72-15.35 359.07-14.7 359.42-14.05 359.42-13.05L359.42-13.05Q359.42-10.65 357.97-10.2L357.97-10.2Q354.97-9.15 351.37-9L351.37-9Q350.42-4.8 347.62-2.27 344.82 0.25 341.27 0.25L341.27 0.25Q338.27 0.25 336.14-1.2 334.02-2.65 332.92-5.05 331.82-7.45 331.82-10.25L331.82-10.25Q331.82-14.05 333.27-17.03 334.72-20 337.27-21.68 339.82-23.35 342.92-23.35L342.92-23.35Q346.72-23.35 349.04-20.73 351.37-18.1 351.77-14.25L351.77-14.25Q354.12-14.4 357.37-15.25L357.37-15.25Q357.77-15.35 358.07-15.35L358.07-15.35ZM341.67-5.05Q343.27-5.05 344.44-6.35 345.62-7.65 346.02-10.1L346.02-10.1Q344.47-11.15 343.64-12.85 342.82-14.55 342.82-16.45L342.82-16.45Q342.82-17.25 342.97-18.05L342.97-18.05 342.72-18.05Q340.72-18.05 339.39-16.13 338.07-14.2 338.07-10.7L338.07-10.7Q338.07-7.95 339.14-6.5 340.22-5.05 341.67-5.05L341.67-5.05ZM358.67 0.25Q356.77 0.25 355.99-1.75 355.22-3.75 355.22-8.15L355.22-8.15Q355.22-14.65 357.07-20.5L357.07-20.5Q357.52-21.95 358.54-22.63 359.57-23.3 361.42-23.3L361.42-23.3Q362.42-23.3 362.82-23.05 363.22-22.8 363.22-22.1L363.22-22.1Q363.22-21.3 362.47-18.5L362.47-18.5Q361.97-16.5 361.67-15 361.37-13.5 361.17-11.3L361.17-11.3Q362.82-15.6 364.87-18.3 366.92-21 368.89-22.15 370.87-23.3 372.52-23.3L372.52-23.3Q375.77-23.3 375.77-20.05L375.77-20.05Q375.77-19.4 375.32-16.9L375.32-16.9Q374.92-14.9 374.92-14.4L374.92-14.4Q374.92-12.65 376.17-12.65L376.17-12.65Q377.57-12.65 379.77-14.85L379.77-14.85Q380.42-15.5 381.12-15.5L381.12-15.5Q381.77-15.5 382.14-14.93 382.52-14.35 382.52-13.4L382.52-13.4Q382.52-11.55 381.52-10.5L381.52-10.5Q380.12-9.05 378.24-8.03 376.37-7 374.27-7L374.27-7Q371.62-7 370.24-8.35 368.87-9.7 368.87-12L368.87-12Q368.87-12.75 369.02-13.5L369.02-13.5Q369.12-14.5 369.12-14.85L369.12-14.85Q369.12-15.65 368.57-15.65L368.57-15.65Q367.82-15.65 366.59-13.98 365.37-12.3 364.17-9.55 362.97-6.8 362.22-3.75L362.22-3.75Q361.67-1.4 360.94-0.58 360.22 0.25 358.67 0.25L358.67 0.25ZM396.81-11.15Q397.46-11.15 397.84-10.55 398.21-9.95 398.21-8.9L398.21-8.9Q398.21-6.9 397.26-5.8L397.26-5.8Q395.11-3.15 392.59-1.45 390.06 0.25 386.86 0.25L386.86 0.25Q382.46 0.25 380.34-3.75 378.21-7.75 378.21-14.1L378.21-14.1Q378.21-20.2 379.79-28 381.36-35.8 384.44-41.4 387.51-47 391.76-47L391.76-47Q394.16-47 395.54-44.78 396.91-42.55 396.91-38.4L396.91-38.4Q396.91-32.45 393.61-24.6 390.31-16.75 384.66-9.05L384.66-9.05Q385.01-7 385.81-6.13 386.61-5.25 387.91-5.25L387.91-5.25Q389.96-5.25 391.51-6.43 393.06-7.6 395.46-10.45L395.46-10.45Q396.06-11.15 396.81-11.15L396.81-11.15ZM390.66-42.05Q389.51-42.05 388.06-37.9 386.61-33.75 385.51-27.6 384.41-21.45 384.31-15.8L384.31-15.8Q387.86-21.65 389.96-27.53 392.06-33.4 392.06-38.25L392.06-38.25Q392.06-42.05 390.66-42.05L390.66-42.05ZM422.06-11.15Q422.71-11.15 423.09-10.55 423.46-9.95 423.46-8.9L423.46-8.9Q423.46-6.9 422.51-5.8L422.51-5.8Q420.46-3.3 418.01-1.53 415.56 0.25 413.16 0.25L413.16 0.25Q409.36 0.25 407.36-4.2L407.36-4.2Q405.26-1.55 403.69-0.65 402.11 0.25 400.01 0.25L400.01 0.25Q396.96 0.25 394.99-2.02 393.01-4.3 393.01-7.95L393.01-7.95Q393.01-11.95 394.71-15.38 396.41-18.8 399.39-20.98 402.36-23.15 406.06-23.55L406.06-23.55Q407.01-33.25 409.69-40.13 412.36-47 416.71-47L416.71-47Q418.86-47 420.29-45.05 421.71-43.1 421.71-39.15L421.71-39.15Q421.71-33.55 418.96-26.05 416.21-18.55 411.61-10.65L411.61-10.65Q411.81-7.75 412.49-6.5 413.16-5.25 414.21-5.25L414.21-5.25Q415.56-5.25 416.96-6.45 418.36-7.65 420.71-10.45L420.71-10.45Q421.31-11.15 422.06-11.15L422.06-11.15ZM416.16-42.1Q415.21-42.1 414.26-38.73 413.31-35.35 412.64-29.9 411.96-24.45 411.66-18.5L411.66-18.5Q417.26-30.7 417.26-38.1L417.26-38.1Q417.26-40 416.94-41.05 416.61-42.1 416.16-42.1L416.16-42.1ZM401.76-4.8Q402.71-4.8 403.66-5.58 404.61-6.35 406.06-8.45L406.06-8.45Q405.56-11.15 405.56-14.5L405.56-14.5Q405.56-15.7 405.66-18.4L405.66-18.4Q402.91-17.55 401.09-14.73 399.26-11.9 399.26-8.45L399.26-8.45Q399.26-4.8 401.76-4.8L401.76-4.8Z" opacity="1" transform="matrix(1,0,0,1,0,0)" fill="#f012be" class="undefined-text-1" data-fill-palette-color="secondary" id="text-1"></path>
                            </svg>
                          </g>
                        </svg>
                      </g>
                    </svg>
                  </g>
                </svg>
              </g>
              <g>
                <svg viewBox="0 0 184.24013759999997 133.100602606368" height="133.100602606368" width="184.24013759999997">
                  <g>
                    <svg xmlns="http://www.w3.org/2000/svg" xmlns:xlink="http://www.w3.org/1999/xlink" version="1.1" x="0" y="0" viewBox="0 0 100 72.24300000000001" xml:space="preserve" width="184.24013759999997" height="133.100602606368" class="icon-icon-0" data-fill-palette-color="accent" id="icon-0">
                      <path d="M48.785 24.695c-0.091-0.091-0.191-0.179-0.297-0.265-0.04-0.033-0.085-0.063-0.127-0.095-0.068-0.052-0.135-0.103-0.207-0.152-0.058-0.04-0.12-0.077-0.18-0.116-0.062-0.039-0.122-0.077-0.186-0.114-0.072-0.042-0.149-0.083-0.225-0.125-0.055-0.029-0.111-0.059-0.168-0.088-0.087-0.044-0.178-0.086-0.269-0.128-0.048-0.022-0.098-0.045-0.147-0.066-0.103-0.045-0.208-0.089-0.315-0.132-0.04-0.016-0.08-0.03-0.119-0.046-0.12-0.045-0.24-0.09-0.364-0.132-0.028-0.01-0.056-0.019-0.084-0.028-0.137-0.045-0.275-0.09-0.417-0.133-0.876-0.26-1.842-0.451-2.843-0.57-0.404-0.047-0.812-0.084-1.221-0.107-0.001 0-0.001 0-0.001 0-0.41-0.024-0.821-0.037-1.23-0.037h-0.001c-3.907 0-8.03 1.1-9 3.157-0.139 0.294-0.213 0.607-0.213 0.94v0.483 1.669 2.87c0 2.661 4.747 4.097 9.213 4.097 4.467 0 9.214-1.436 9.214-4.097v-5.022c0-0.166-0.018-0.328-0.054-0.485-0.072-0.313-0.213-0.607-0.413-0.881C49.03 24.955 48.915 24.823 48.785 24.695zM48.035 31.48c0 1.033-2.979 2.534-7.65 2.534v-3.459c2.889 0 5.887-0.604 7.65-1.75V31.48zM40.384 28.993c-0.345 0-0.678-0.011-1.004-0.026-0.098-0.004-0.192-0.012-0.289-0.018-0.233-0.014-0.462-0.033-0.686-0.054-0.091-0.009-0.184-0.018-0.274-0.028-0.261-0.03-0.515-0.064-0.762-0.103-0.032-0.005-0.068-0.009-0.1-0.014-0.289-0.047-0.563-0.102-0.828-0.16-0.038-0.008-0.074-0.018-0.112-0.026-0.226-0.052-0.443-0.108-0.65-0.167-0.041-0.012-0.082-0.024-0.122-0.036-1.107-0.328-1.921-0.744-2.383-1.158-0.017-0.016-0.034-0.031-0.05-0.048-0.042-0.039-0.083-0.078-0.118-0.118-0.046-0.052-0.089-0.104-0.124-0.155-0.015-0.023-0.026-0.045-0.039-0.067-0.024-0.042-0.045-0.083-0.062-0.125-0.009-0.019-0.016-0.039-0.021-0.058-0.017-0.059-0.03-0.118-0.03-0.174 0-0.064 0.012-0.131 0.035-0.198 0.021-0.061 0.052-0.122 0.089-0.184 0.013-0.021 0.031-0.043 0.047-0.065 0.028-0.041 0.058-0.082 0.093-0.123 0.024-0.027 0.052-0.054 0.079-0.081 0.036-0.036 0.072-0.072 0.113-0.108 0.034-0.03 0.072-0.06 0.11-0.09 0.041-0.032 0.082-0.064 0.127-0.096 0.046-0.033 0.096-0.067 0.146-0.1 0.042-0.027 0.087-0.055 0.132-0.083 0.061-0.037 0.123-0.073 0.188-0.109 0.041-0.022 0.084-0.044 0.126-0.066 0.078-0.04 0.156-0.08 0.241-0.119 0.03-0.014 0.061-0.028 0.092-0.041 0.845-0.38 1.998-0.708 3.4-0.897 0.005-0.001 0.009-0.001 0.014-0.002 0.201-0.027 0.407-0.051 0.618-0.071 0.009-0.001 0.017-0.001 0.025-0.003 0.212-0.021 0.428-0.039 0.65-0.053 0.001 0 0.001 0 0.002 0 0.425-0.027 0.864-0.044 1.324-0.044 0.482 0 0.946 0.016 1.391 0.046 0.745 0.05 1.431 0.14 2.06 0.257 0.044 0.008 0.087 0.017 0.13 0.025 0.497 0.097 0.955 0.212 1.37 0.339 0.042 0.013 0.084 0.026 0.126 0.04 0.201 0.064 0.395 0.131 0.575 0.201 0.002 0.001 0.004 0.002 0.007 0.003 0.173 0.067 0.334 0.139 0.487 0.21 0.038 0.018 0.074 0.036 0.111 0.054 0.148 0.073 0.291 0.147 0.417 0.223 0.003 0.002 0.006 0.005 0.011 0.007 0.122 0.073 0.229 0.147 0.328 0.222 0.027 0.02 0.053 0.04 0.078 0.06 0.096 0.077 0.185 0.154 0.257 0.23 0.2 0.214 0.306 0.424 0.306 0.618C48.035 27.492 45.054 28.993 40.384 28.993z" fill="#cf261c" data-fill-palette-color="accent"></path>
                      <path d="M69.21 24.089v-5.021c0-0.167-0.019-0.328-0.055-0.485-0.071-0.313-0.213-0.607-0.413-0.881-0.1-0.137-0.215-0.269-0.344-0.396-0.092-0.091-0.191-0.179-0.297-0.265-0.04-0.033-0.085-0.063-0.127-0.095-0.068-0.052-0.135-0.103-0.207-0.152-0.058-0.04-0.119-0.078-0.18-0.116-0.062-0.039-0.122-0.077-0.187-0.115-0.072-0.042-0.148-0.083-0.225-0.124-0.055-0.03-0.111-0.06-0.168-0.088-0.087-0.044-0.178-0.087-0.269-0.129-0.049-0.022-0.099-0.044-0.147-0.066-0.104-0.045-0.208-0.089-0.315-0.132-0.04-0.016-0.08-0.031-0.12-0.046-0.119-0.045-0.239-0.09-0.363-0.132-0.028-0.01-0.056-0.018-0.084-0.028-0.137-0.046-0.275-0.09-0.418-0.133-0.876-0.261-1.842-0.452-2.843-0.57-0.403-0.047-0.812-0.084-1.222-0.108-0.001 0-0.001 0-0.001 0-0.41-0.024-0.821-0.037-1.229-0.037h-0.001c-3.908 0-8.03 1.1-9 3.158-0.139 0.293-0.213 0.607-0.213 0.94v0.482 1.669 2.87c0 2.661 4.747 4.097 9.213 4.097S69.21 26.75 69.21 24.089zM67.648 24.089c0 1.033-2.98 2.535-7.65 2.535v-3.459c2.888 0 5.887-0.604 7.65-1.749V24.089zM58.704 21.559c-0.233-0.015-0.463-0.033-0.686-0.054-0.091-0.009-0.184-0.018-0.274-0.028-0.261-0.029-0.516-0.064-0.762-0.103-0.032-0.005-0.067-0.009-0.1-0.015-0.289-0.047-0.563-0.101-0.828-0.16-0.037-0.008-0.074-0.018-0.111-0.026-0.227-0.052-0.443-0.108-0.65-0.167-0.041-0.012-0.082-0.023-0.122-0.036-1.106-0.328-1.92-0.743-2.382-1.158-0.018-0.016-0.034-0.032-0.051-0.048-0.042-0.04-0.083-0.079-0.117-0.118-0.047-0.052-0.09-0.104-0.124-0.155-0.015-0.022-0.025-0.045-0.039-0.067-0.023-0.042-0.045-0.083-0.061-0.125-0.009-0.02-0.017-0.039-0.021-0.058-0.018-0.059-0.03-0.118-0.03-0.174 0-0.064 0.012-0.131 0.034-0.199 0.021-0.06 0.052-0.122 0.089-0.184 0.014-0.021 0.031-0.043 0.048-0.064 0.028-0.041 0.058-0.082 0.094-0.123 0.023-0.027 0.052-0.054 0.078-0.081 0.036-0.036 0.072-0.072 0.113-0.108 0.034-0.03 0.072-0.061 0.109-0.09 0.041-0.032 0.082-0.064 0.127-0.096 0.047-0.034 0.096-0.067 0.146-0.1 0.042-0.028 0.088-0.055 0.133-0.083 0.061-0.037 0.122-0.073 0.188-0.109 0.041-0.022 0.084-0.043 0.126-0.065 0.077-0.041 0.155-0.08 0.24-0.12 0.03-0.014 0.062-0.027 0.093-0.041 0.845-0.38 1.997-0.708 3.399-0.897 0.006-0.001 0.01-0.001 0.015-0.002 0.201-0.027 0.406-0.051 0.617-0.072 0.009-0.001 0.018-0.001 0.024-0.002 0.213-0.021 0.429-0.039 0.65-0.053 0.001 0 0.001 0 0.002 0 0.426-0.027 0.864-0.045 1.324-0.045 0.481 0 0.945 0.016 1.39 0.046 0.745 0.05 1.432 0.14 2.061 0.257 0.044 0.008 0.087 0.016 0.13 0.025 0.497 0.097 0.954 0.212 1.37 0.339 0.042 0.013 0.084 0.026 0.126 0.039 0.201 0.065 0.395 0.131 0.574 0.202 0.002 0.001 0.004 0.002 0.008 0.003 0.173 0.068 0.333 0.139 0.486 0.21 0.037 0.018 0.074 0.036 0.11 0.053 0.149 0.073 0.291 0.147 0.417 0.223 0.003 0.003 0.006 0.005 0.011 0.008 0.121 0.073 0.229 0.147 0.328 0.222 0.027 0.02 0.053 0.039 0.077 0.059 0.096 0.077 0.186 0.154 0.258 0.23 0.2 0.213 0.306 0.424 0.306 0.618 0 1.034-2.981 2.535-7.651 2.535-0.346 0-0.679-0.011-1.004-0.026C58.895 21.572 58.8 21.565 58.704 21.559z" fill="#cf261c" data-fill-palette-color="accent"></path>
                      <path d="M99.968 16.961c-0.007-0.022-0.017-0.043-0.024-0.064-0.018-0.045-0.038-0.089-0.063-0.13-0.014-0.022-0.027-0.042-0.043-0.063-0.029-0.039-0.062-0.073-0.099-0.105-0.018-0.016-0.033-0.032-0.053-0.047-0.008-0.006-0.014-0.014-0.022-0.02-0.051-0.036-0.105-0.063-0.162-0.085 0 0-0.001-0.001-0.002-0.001l-0.001-0.001c-0.002 0-0.003-0.001-0.005-0.001l-10.671-4.085v-0.68c0-0.166-0.019-0.328-0.054-0.485-0.072-0.313-0.213-0.607-0.413-0.881-0.101-0.137-0.216-0.269-0.345-0.396-0.092-0.091-0.191-0.179-0.297-0.265-0.04-0.033-0.085-0.063-0.127-0.095-0.068-0.052-0.135-0.103-0.207-0.152-0.058-0.04-0.119-0.077-0.18-0.116-0.062-0.039-0.121-0.077-0.186-0.114-0.072-0.042-0.148-0.083-0.226-0.125-0.055-0.03-0.11-0.059-0.168-0.088-0.087-0.044-0.177-0.086-0.269-0.128-0.049-0.022-0.098-0.044-0.147-0.066-0.104-0.045-0.208-0.089-0.315-0.132-0.04-0.016-0.08-0.031-0.119-0.046-0.12-0.045-0.24-0.09-0.364-0.132-0.027-0.01-0.056-0.019-0.084-0.028-0.137-0.045-0.275-0.09-0.417-0.133-0.876-0.26-1.843-0.451-2.844-0.57-0.403-0.047-0.811-0.084-1.221-0.107-0.001 0-0.001 0-0.001 0-0.41-0.024-0.821-0.037-1.23-0.037h-0.001c-0.93 0-1.87 0.064-2.778 0.187l-7.809-2.988V4.098c0-0.167-0.019-0.328-0.054-0.485-0.072-0.313-0.213-0.607-0.414-0.881-0.1-0.137-0.215-0.269-0.344-0.396-0.092-0.091-0.191-0.179-0.297-0.265-0.04-0.033-0.085-0.063-0.127-0.095-0.068-0.052-0.135-0.103-0.207-0.152-0.058-0.04-0.119-0.078-0.18-0.116-0.062-0.039-0.121-0.077-0.187-0.115-0.071-0.042-0.148-0.083-0.225-0.124-0.055-0.03-0.11-0.06-0.168-0.088-0.087-0.044-0.178-0.086-0.269-0.128-0.049-0.023-0.098-0.045-0.147-0.066-0.104-0.045-0.208-0.089-0.315-0.132-0.04-0.016-0.08-0.031-0.119-0.046-0.12-0.045-0.24-0.09-0.364-0.132-0.028-0.01-0.056-0.018-0.084-0.028-0.137-0.046-0.275-0.09-0.417-0.133-0.876-0.261-1.843-0.452-2.844-0.57-0.403-0.047-0.812-0.084-1.221-0.108-0.002 0-0.002 0-0.002 0C60.629 0.013 60.218 0 59.809 0h-0.001c-3.907 0-8.03 1.1-9 3.158-0.139 0.293-0.213 0.607-0.213 0.94V4.58l-7.87 2.965c-0.026-0.002-0.051-0.007-0.077-0.01-0.403-0.047-0.811-0.084-1.221-0.107-0.001 0-0.001 0-0.001 0-0.41-0.024-0.821-0.037-1.23-0.037h-0.001c-3.907 0-8.03 1.1-9 3.157-0.139 0.294-0.213 0.607-0.213 0.94v0.482l-7.869 2.966c0.024 0.003 0.049 0.007 0.073 0.01-0.05-0.006-0.1-0.015-0.15-0.021-0.404-0.047-0.812-0.084-1.222-0.108-0.001 0-0.001 0-0.001 0-0.41-0.024-0.821-0.037-1.23-0.037h-0.001c-3.908 0-8.03 1.1-9 3.158-0.138 0.293-0.213 0.607-0.213 0.94v0.482L0.508 23.453c-0.001 0-0.001 0-0.003 0.001l0 0c-0.059 0.022-0.114 0.051-0.167 0.087-0.008 0.006-0.013 0.013-0.021 0.019-0.02 0.014-0.036 0.031-0.054 0.047-0.036 0.032-0.069 0.066-0.098 0.104-0.016 0.021-0.03 0.041-0.043 0.063-0.026 0.042-0.046 0.084-0.064 0.129C0.05 23.926 0.04 23.947 0.033 23.97c-0.019 0.066-0.031 0.134-0.032 0.205C0.001 24.178 0 24.18 0 24.183c0 0 0 0 0 0.001s0 0 0 0.001v32.118c0 0.324 0.2 0.614 0.502 0.729l39.602 15.159c0.007 0.003 0.015 0.002 0.022 0.004 0.083 0.029 0.169 0.048 0.257 0.048 0.087 0 0.172-0.018 0.254-0.047 0.007-0.002 0.014-0.001 0.021-0.003l58.837-22.171c0.304-0.114 0.505-0.406 0.505-0.73V17.173C100 17.1 99.987 17.03 99.968 16.961zM76.978 9.316c0.005-0.001 0.01-0.001 0.014-0.002 0.201-0.027 0.406-0.051 0.617-0.072 0.009-0.001 0.018-0.001 0.025-0.003 0.212-0.021 0.428-0.039 0.649-0.053 0.001 0 0.001 0 0.003 0 0.425-0.027 0.863-0.044 1.323-0.044 0.482 0 0.946 0.016 1.391 0.046 0.744 0.05 1.431 0.14 2.06 0.257 0.044 0.008 0.087 0.016 0.13 0.024 0.497 0.097 0.955 0.212 1.37 0.34 0.042 0.013 0.084 0.026 0.126 0.039 0.201 0.064 0.395 0.131 0.574 0.201 0.003 0.001 0.005 0.002 0.008 0.003 0.174 0.068 0.334 0.139 0.486 0.21 0.038 0.018 0.074 0.035 0.111 0.053 0.148 0.073 0.29 0.147 0.416 0.223 0.003 0.002 0.007 0.005 0.011 0.007 0.122 0.073 0.229 0.147 0.328 0.222 0.027 0.02 0.053 0.04 0.078 0.06 0.096 0.077 0.185 0.154 0.257 0.23 0.2 0.214 0.306 0.424 0.306 0.618 0 1.034-2.98 2.535-7.651 2.535-0.346 0-0.678-0.011-1.004-0.026-0.098-0.004-0.192-0.011-0.288-0.018-0.234-0.014-0.463-0.033-0.686-0.054-0.092-0.009-0.185-0.018-0.274-0.028-0.262-0.03-0.516-0.064-0.763-0.103-0.032-0.005-0.067-0.009-0.1-0.014-0.288-0.047-0.562-0.102-0.828-0.16-0.037-0.008-0.074-0.018-0.111-0.026-0.227-0.052-0.443-0.108-0.65-0.167-0.041-0.012-0.081-0.024-0.121-0.036-1.107-0.328-1.921-0.744-2.383-1.158-0.018-0.017-0.034-0.032-0.051-0.048-0.042-0.04-0.083-0.079-0.117-0.118-0.046-0.052-0.089-0.104-0.124-0.155-0.015-0.023-0.025-0.045-0.038-0.067-0.023-0.042-0.046-0.083-0.062-0.125-0.009-0.019-0.017-0.039-0.021-0.058-0.018-0.059-0.03-0.118-0.03-0.174 0-0.064 0.012-0.13 0.034-0.198 0.021-0.061 0.052-0.123 0.09-0.184 0.013-0.021 0.031-0.043 0.047-0.064 0.028-0.041 0.059-0.082 0.094-0.124 0.023-0.027 0.052-0.054 0.079-0.081 0.035-0.036 0.071-0.072 0.112-0.108 0.035-0.03 0.072-0.06 0.11-0.09 0.041-0.032 0.081-0.064 0.127-0.096 0.046-0.033 0.096-0.067 0.146-0.1 0.042-0.027 0.087-0.055 0.132-0.083 0.061-0.036 0.123-0.073 0.188-0.109 0.041-0.022 0.084-0.043 0.126-0.066 0.077-0.04 0.156-0.08 0.241-0.119 0.03-0.014 0.062-0.027 0.092-0.041C74.423 9.833 75.575 9.506 76.978 9.316zM87.261 14.025v2.674c0 1.033-2.979 2.534-7.65 2.534v-3.459C82.499 15.774 85.497 15.17 87.261 14.025zM52.191 3.899c0.021-0.06 0.052-0.122 0.09-0.184 0.013-0.021 0.031-0.043 0.047-0.064 0.028-0.041 0.059-0.082 0.094-0.123C52.445 3.5 52.474 3.474 52.5 3.447c0.036-0.036 0.072-0.072 0.113-0.108 0.034-0.03 0.072-0.06 0.11-0.09 0.04-0.032 0.081-0.064 0.127-0.096 0.046-0.034 0.096-0.067 0.146-0.1 0.042-0.027 0.088-0.055 0.133-0.083 0.061-0.037 0.123-0.073 0.188-0.109 0.041-0.022 0.084-0.043 0.126-0.065 0.077-0.041 0.156-0.08 0.241-0.12 0.029-0.014 0.061-0.027 0.092-0.041 0.845-0.38 1.998-0.708 3.399-0.898 0.006-0.001 0.01-0.001 0.015-0.002 0.201-0.027 0.406-0.051 0.617-0.071 0.009-0.001 0.018-0.002 0.025-0.003 0.212-0.021 0.428-0.039 0.649-0.053 0.001 0 0.001 0 0.002 0 0.426-0.027 0.864-0.044 1.324-0.044 0.482 0 0.946 0.016 1.391 0.046 0.744 0.05 1.431 0.14 2.06 0.257 0.044 0.008 0.087 0.016 0.13 0.025 0.497 0.097 0.955 0.212 1.37 0.339 0.042 0.013 0.084 0.026 0.126 0.04 0.201 0.064 0.395 0.131 0.574 0.201 0.002 0.001 0.005 0.002 0.008 0.003 0.173 0.068 0.334 0.139 0.486 0.21 0.038 0.018 0.074 0.036 0.111 0.053 0.148 0.073 0.29 0.147 0.416 0.223 0.003 0.002 0.007 0.004 0.011 0.007 0.122 0.073 0.229 0.147 0.328 0.222 0.027 0.02 0.053 0.039 0.078 0.059 0.096 0.077 0.185 0.154 0.257 0.23 0.2 0.213 0.306 0.424 0.306 0.618 0 1.034-2.981 2.535-7.651 2.535-0.346 0-0.678-0.011-1.004-0.026-0.099-0.004-0.193-0.011-0.289-0.017-0.233-0.015-0.462-0.033-0.686-0.054-0.091-0.009-0.184-0.018-0.274-0.028-0.261-0.029-0.515-0.064-0.762-0.103-0.032-0.005-0.067-0.009-0.1-0.015-0.289-0.047-0.563-0.101-0.828-0.16-0.037-0.008-0.074-0.018-0.111-0.026-0.227-0.052-0.443-0.108-0.65-0.167-0.041-0.012-0.082-0.023-0.121-0.035-1.107-0.328-1.921-0.744-2.383-1.158-0.018-0.016-0.034-0.032-0.051-0.048-0.042-0.039-0.083-0.079-0.117-0.118-0.046-0.052-0.089-0.104-0.124-0.155-0.015-0.022-0.025-0.045-0.038-0.067-0.024-0.042-0.046-0.083-0.062-0.125-0.009-0.02-0.017-0.039-0.021-0.058-0.018-0.059-0.03-0.118-0.03-0.174C52.157 4.033 52.169 3.967 52.191 3.899zM67.46 6.445V9.12c0 1.033-2.98 2.534-7.65 2.534V8.194C62.698 8.194 65.696 7.59 67.46 6.445zM32.579 11.29c0.021-0.061 0.052-0.122 0.089-0.184 0.013-0.021 0.031-0.043 0.047-0.064 0.028-0.041 0.058-0.082 0.094-0.124 0.023-0.027 0.052-0.054 0.079-0.081 0.035-0.036 0.072-0.072 0.113-0.108 0.035-0.03 0.072-0.061 0.11-0.091 0.041-0.032 0.082-0.064 0.127-0.096 0.046-0.033 0.096-0.066 0.146-0.1 0.042-0.027 0.087-0.055 0.132-0.082 0.06-0.037 0.123-0.073 0.188-0.109 0.041-0.022 0.084-0.043 0.126-0.066 0.078-0.04 0.156-0.08 0.241-0.119 0.03-0.014 0.062-0.027 0.093-0.041 0.845-0.38 1.997-0.708 3.399-0.897 0.005-0.001 0.01-0.001 0.014-0.002 0.202-0.027 0.407-0.051 0.618-0.072 0.008-0.001 0.017-0.001 0.024-0.002 0.212-0.021 0.428-0.039 0.65-0.053 0.001 0 0.001 0 0.002 0 0.425-0.028 0.864-0.045 1.324-0.045 0.482 0 0.946 0.016 1.39 0.046 0.745 0.05 1.431 0.14 2.06 0.257 0.044 0.008 0.087 0.016 0.13 0.024 0.497 0.097 0.955 0.212 1.37 0.34 0.042 0.013 0.084 0.026 0.125 0.039 0.202 0.064 0.395 0.131 0.575 0.201 0.002 0.001 0.004 0.002 0.008 0.003 0.173 0.068 0.333 0.139 0.486 0.21 0.038 0.018 0.074 0.035 0.111 0.053 0.148 0.073 0.291 0.147 0.417 0.223 0.003 0.002 0.006 0.005 0.011 0.007 0.122 0.073 0.229 0.147 0.328 0.223 0.027 0.02 0.053 0.039 0.078 0.059 0.096 0.077 0.185 0.154 0.257 0.23 0.2 0.214 0.305 0.424 0.305 0.618 0 1.034-2.98 2.535-7.651 2.535-0.346 0-0.678-0.011-1.004-0.026-0.098-0.004-0.192-0.011-0.288-0.017-0.234-0.015-0.463-0.033-0.686-0.055-0.092-0.009-0.184-0.018-0.274-0.028-0.262-0.03-0.516-0.064-0.762-0.103-0.032-0.005-0.068-0.009-0.1-0.014-0.288-0.047-0.562-0.101-0.827-0.16-0.038-0.008-0.074-0.018-0.112-0.026-0.226-0.052-0.443-0.108-0.65-0.167-0.041-0.012-0.082-0.024-0.122-0.036-1.107-0.328-1.921-0.744-2.382-1.158-0.018-0.016-0.035-0.032-0.051-0.048-0.042-0.04-0.083-0.079-0.117-0.118-0.046-0.052-0.089-0.104-0.124-0.155-0.015-0.022-0.026-0.045-0.039-0.067-0.023-0.042-0.045-0.083-0.062-0.125-0.008-0.02-0.016-0.039-0.021-0.059-0.017-0.059-0.03-0.118-0.03-0.174C32.544 11.423 32.556 11.357 32.579 11.29zM47.847 13.835v2.674c0 1.033-2.979 2.534-7.65 2.534v-3.459C43.085 15.584 46.083 14.98 47.847 13.835zM12.966 18.68c0.021-0.06 0.052-0.122 0.089-0.184 0.013-0.021 0.032-0.043 0.047-0.064 0.028-0.041 0.058-0.082 0.094-0.123 0.023-0.027 0.052-0.054 0.078-0.081 0.035-0.036 0.072-0.072 0.113-0.108 0.034-0.03 0.072-0.06 0.11-0.09 0.04-0.032 0.082-0.064 0.126-0.096 0.046-0.034 0.096-0.067 0.147-0.1 0.042-0.028 0.086-0.055 0.132-0.083 0.06-0.037 0.123-0.073 0.188-0.109 0.041-0.022 0.083-0.043 0.125-0.065 0.078-0.041 0.157-0.08 0.242-0.12 0.03-0.014 0.062-0.027 0.092-0.041 0.845-0.381 1.998-0.708 3.4-0.897 0.005-0.001 0.01-0.002 0.014-0.002 0.201-0.027 0.407-0.051 0.618-0.072 0.008-0.001 0.017-0.001 0.025-0.002 0.212-0.021 0.428-0.039 0.65-0.053 0.001 0 0.001 0 0.002 0 0.425-0.027 0.864-0.044 1.324-0.044 0.482 0 0.946 0.016 1.391 0.046 0.745 0.05 1.431 0.14 2.06 0.257 0.044 0.008 0.087 0.016 0.13 0.025 0.498 0.097 0.955 0.212 1.37 0.339 0.042 0.013 0.084 0.026 0.126 0.04 0.201 0.064 0.395 0.131 0.575 0.201 0.002 0.001 0.004 0.002 0.007 0.003 0.173 0.068 0.334 0.139 0.486 0.21 0.038 0.018 0.074 0.036 0.111 0.053 0.149 0.073 0.291 0.147 0.417 0.223 0.003 0.003 0.007 0.005 0.011 0.008 0.122 0.073 0.229 0.147 0.329 0.222 0.027 0.02 0.053 0.039 0.077 0.059 0.096 0.077 0.185 0.154 0.257 0.23 0.2 0.213 0.306 0.424 0.306 0.618 0 1.034-2.981 2.535-7.651 2.535-0.346 0-0.678-0.011-1.004-0.026-0.098-0.004-0.193-0.011-0.289-0.017-0.233-0.015-0.463-0.033-0.686-0.054-0.091-0.009-0.184-0.018-0.274-0.028-0.261-0.029-0.515-0.064-0.762-0.103-0.032-0.005-0.068-0.009-0.1-0.015-0.289-0.047-0.563-0.101-0.828-0.16-0.038-0.008-0.074-0.018-0.112-0.026-0.226-0.052-0.443-0.108-0.65-0.167-0.041-0.012-0.082-0.023-0.122-0.036-1.107-0.328-1.921-0.743-2.382-1.158-0.018-0.016-0.035-0.032-0.051-0.048-0.042-0.039-0.083-0.079-0.117-0.118-0.046-0.052-0.089-0.104-0.124-0.155-0.016-0.022-0.026-0.045-0.039-0.067-0.024-0.042-0.045-0.083-0.062-0.125-0.008-0.02-0.016-0.039-0.021-0.058-0.017-0.059-0.03-0.118-0.03-0.174C12.932 18.814 12.943 18.748 12.966 18.68zM28.234 21.226V23.9c0 1.033-2.98 2.534-7.65 2.534v-3.459C23.473 22.975 26.471 22.371 28.234 21.226zM40.385 38.509l-24.341-9.317-13.063-5 8.389-3.161v0 2.87c0 2.661 4.747 4.097 9.213 4.097 4.467 0 9.214-1.436 9.214-4.097v-5.022c0-0.167-0.019-0.328-0.054-0.485-0.072-0.313-0.213-0.607-0.414-0.881-0.1-0.137-0.215-0.269-0.344-0.396-0.091-0.091-0.191-0.179-0.297-0.265-0.04-0.033-0.085-0.063-0.127-0.095-0.068-0.052-0.135-0.103-0.207-0.152-0.058-0.04-0.12-0.078-0.18-0.116-0.061-0.039-0.122-0.077-0.186-0.115-0.072-0.042-0.148-0.083-0.225-0.124-0.055-0.03-0.111-0.059-0.168-0.088-0.087-0.044-0.178-0.086-0.269-0.128-0.048-0.023-0.098-0.045-0.147-0.066-0.104-0.045-0.208-0.089-0.315-0.132-0.04-0.016-0.08-0.031-0.119-0.046-0.12-0.045-0.24-0.09-0.364-0.132-0.028-0.01-0.056-0.018-0.084-0.028-0.105-0.035-0.213-0.069-0.321-0.102l5.006-1.887v0 2.87c0 2.661 4.747 4.097 9.213 4.097 4.467 0 9.214-1.436 9.214-4.097v-5.022c0-0.166-0.018-0.328-0.054-0.484-0.072-0.313-0.213-0.607-0.413-0.881-0.1-0.138-0.215-0.269-0.344-0.397C48.505 9.634 48.405 9.547 48.3 9.46c-0.04-0.033-0.085-0.063-0.127-0.095-0.068-0.052-0.134-0.103-0.207-0.152-0.058-0.04-0.12-0.077-0.18-0.116-0.061-0.039-0.122-0.077-0.186-0.114-0.072-0.042-0.148-0.083-0.225-0.125C47.321 8.83 47.265 8.8 47.208 8.771c-0.087-0.044-0.177-0.086-0.269-0.128-0.048-0.022-0.098-0.044-0.147-0.066-0.103-0.045-0.208-0.089-0.315-0.132-0.04-0.016-0.08-0.031-0.12-0.046-0.12-0.045-0.24-0.09-0.364-0.132-0.028-0.01-0.056-0.019-0.084-0.028-0.105-0.035-0.213-0.069-0.321-0.102l5.007-1.886V9.12c0 2.661 4.748 4.097 9.213 4.097 4.467 0 9.214-1.436 9.214-4.097V6.45l5.027 1.925c-1.66 0.532-2.952 1.325-3.44 2.362-0.139 0.294-0.213 0.607-0.213 0.94v0.483 1.669 2.87c0 2.661 4.747 4.097 9.213 4.097 4.467 0 9.214-1.436 9.214-4.097v-2.67l8.198 3.139L40.385 38.509zM98.438 48.751L41.164 70.333V39.884l20.307-7.652 36.968-13.929V48.751z" fill="#cf261c" data-fill-palette-color="accent"></path>
                    </svg>
                  </g>
                </svg>
              </g>
            </svg>
          </g>
          <defs></defs>
        </svg>
        <rect width="395.52" height="88.10400176648055" fill="none" stroke="none" visibility="hidden"></rect>
      </g>
    </svg>
  </g>
</svg>
